# xmcd CD database file
#
# Track frame offsets:
#	150
#	22140
#	28187
#
# Disc length: 716 seconds
#
# Revision: 0
# Processed by: cddbd v1.5.1PL2 Copyright (c) Steve Scherf et al.
# Submitted via: CDex 1.51
#
DISCID=2102ca03
DTITLE=森 雪之丞 - 悪魔にされた天使 The ANGEL is changed to a DEVIL
DYEAR=1997
DGENRE=Rock
TTITLE0=悪魔にされた天使 The ANGEL is changed to a DEVIL
TTITLE1=時計の針に挟まってしまった天使
TTITLE2=瞳を閉じて青空を見ろ
EXTD=YEAR: 1997
EXTT0=
EXTT1=
EXTT2=
PLAYORDER=
